<svg width="32" height="32" viewBox="0 0 32 32" xmlns="http://www.w3.org/2000/svg"><title>Shape</title><path d="M16 0C7.164 0 0 7.164 0 16s7.164 16 16 16a2.663 2.663 0 0 0 2.667-2.667c0-.693-.267-1.315-.694-1.795a2.67 2.67 0 0 1-.675-1.76 2.663 2.663 0 0 1 2.666-2.667h3.147c4.907 0 8.889-3.982 8.889-8.889C32 6.364 24.836 0 16 0zM6.222 16a2.663 2.663 0 0 1-2.666-2.667 2.663 2.663 0 0 1 2.666-2.666 2.663 2.663 0 0 1 2.667 2.666A2.663 2.663 0 0 1 6.222 16zm5.334-7.111a2.663 2.663 0 0 1-2.667-2.667 2.663 2.663 0 0 1 2.667-2.666 2.663 2.663 0 0 1 2.666 2.666 2.663 2.663 0 0 1-2.666 2.667zm8.888 0a2.663 2.663 0 0 1-2.666-2.667 2.663 2.663 0 0 1 2.666-2.666 2.663 2.663 0 0 1 2.667 2.666 2.663 2.663 0 0 1-2.667 2.667zM25.778 16a2.663 2.663 0 0 1-2.667-2.667 2.663 2.663 0 0 1 2.667-2.666 2.663 2.663 0 0 1 2.666 2.666A2.663 2.663 0 0 1 25.778 16z" fill-rule="nonzero" fill="#FFF"/></svg>