<svg width="93" height="106" viewBox="0 0 93 106" xmlns="http://www.w3.org/2000/svg">
    <title>
        Group 16
    </title>
    <g fill="none" fill-rule="evenodd">
        <path d="M91.485 1.271l-.082 56.327-90.816-.129.081-56.326 90.817.128z" fill="#E78D8D"/>
        <path d="M92.917.272l-.084 59.03-87.665-1.056-3.528-.043-.075-57.06 91.352-.87z" fill="#705D3D"/>
        <path d="M91.485 1.271l-.082 56.327-90.816-.129.081-56.326 90.817.128z" fill="#FFF"/>
        <g fill="#705D3D">
            <path d="M58.185 29.5c.055-4.198-.13-8.392-.146-12.59-.002-.694-1.063-.694-1.06 0 .015 4.198.2 8.392.145 12.59-.008.694 1.052.693 1.061 0"/>
            <path d="M57.398 28.971c-7.318.039-14.625.487-21.942.526-.684.003-.684 1.08 0 1.076 7.317-.039 14.624-.487 21.942-.526.684-.003.684-1.08 0-1.076"/>
            <path d="M35.986 30.024c-.053-4.111.217-8.218.292-12.327.013-.695-1.047-.693-1.06 0-.076 4.11-.345 8.216-.292 12.327.008.694 1.07.694 1.06 0"/>
            <path d="M35.607 17.169c-.674.096-.386 1.132.282 1.037 7.137-1.012 14.61-.754 21.801-.768.684-.002.684-1.078 0-1.076-7.295.015-14.844-.221-22.083.807zm17.557 8.467c-2.427-.16-4.847.054-7.275.08-.683.009-.684 1.085 0 1.077 2.428-.027 4.848-.242 7.275-.081.684.045.68-1.031 0-1.076m.063-2.725h-7.462c-.685 0-.685 1.076 0 1.076h7.462c.684 0 .684-1.076 0-1.076m.462-3.035h-7.792c-.684 0-.684 1.076 0 1.076h7.792c.684 0 .684-1.076 0-1.076m-11.256 6.521c.009-2.094-.02-4.187-.023-6.28-.001-.694-1.062-.694-1.06 0 .002 2.093.031 4.186.022 6.28-.002.694 1.058.694 1.06 0"/>
            <path d="M41.862 25.864c-1.162.018-2.306.243-3.468.261-.683.012-.685 1.088 0 1.077 1.162-.02 2.306-.243 3.468-.262.683-.012.684-1.088 0-1.076"/>
            <path d="M38.924 26.659c-.008-2.05.035-4.1.046-6.15.005-.695-1.056-.694-1.06 0-.012 2.05-.054 4.1-.046 6.15.002.694 1.063.694 1.06 0"/>
            <path d="M41.908 19.573c-1.197.008-2.622-.032-3.735.467-.625.28-.085 1.207.535.929.428-.191.875-.184 1.332-.207.624-.03 1.242-.11 1.868-.113.684-.004.684-1.08 0-1.076"/>
        </g>
        <g fill="#705D3D">
            <path d="M87.504 28.9c.054-4.198-.13-8.393-.146-12.59-.003-.694-1.064-.694-1.06 0 .015 4.197.2 8.392.145 12.59-.009.694 1.052.693 1.06 0"/>
            <path d="M86.716 28.371c-7.317.039-14.624.487-21.941.525-.684.004-.684 1.08 0 1.077 7.317-.039 14.624-.487 21.941-.526.684-.003.684-1.08 0-1.076"/>
            <path d="M65.305 29.424c-.053-4.112.216-8.218.292-12.327.013-.695-1.048-.693-1.061 0-.075 4.109-.345 8.215-.292 12.327.01.693 1.07.694 1.06 0"/>
            <path d="M87.009 15.761c-7.296.016-14.844-.22-22.083.807-.674.096-.386 1.133.282 1.038 7.136-1.013 14.61-.754 21.8-.769.685-.001.685-1.078 0-1.076m-2.818 9.278c.041-1.428-.098-2.85-.11-4.277-.006-.694-1.067-.694-1.06 0 .011 1.427.15 2.85.11 4.277-.021.694 1.04.692 1.06 0"/>
            <path d="M83.466 24.504c-5.511.014-11.02.166-16.531.179-.684.001-.684 1.077 0 1.076 5.51-.013 11.02-.165 16.53-.179.685-.002.685-1.078 0-1.076"/>
            <path d="M67.465 25.217c-.042-1.4.163-2.79.22-4.188.028-.694-1.033-.691-1.06 0-.057 1.397-.262 2.788-.22 4.188.02.692 1.08.694 1.06 0"/>
            <path d="M83.686 20.22c-5.5.006-11.04-.083-16.53.269-.68.043-.684 1.119 0 1.076 5.49-.352 11.03-.263 16.53-.268.684-.001.684-1.077 0-1.077"/>
        </g>
        <path d="M10.44 23.058c.16-4.603-.055-9.202-.082-13.805-.004-.684-1.08-.684-1.076 0 .027 4.603.241 9.202.081 13.805-.024.684 1.053.683 1.076 0m2.725.119V9.015c0-.684-1.076-.684-1.076 0v14.162c0 .684 1.076.684 1.076 0" fill="#FFF"/>
        <g fill="#705D3D">
            <path d="M26.657 29.866c.055-4.198-.13-8.392-.146-12.59-.003-.694-1.063-.694-1.06 0 .015 4.198.2 8.392.145 12.59-.009.694 1.052.693 1.061 0"/>
            <path d="M25.87 29.338c-7.318.038-14.625.487-21.942.525-.684.004-.684 1.08 0 1.076 7.317-.038 14.624-.487 21.941-.525.685-.004.685-1.08 0-1.076"/>
            <path d="M4.458 30.39c-.053-4.11.217-8.217.292-12.326.013-.695-1.048-.693-1.06 0-.076 4.109-.345 8.215-.292 12.327.008.693 1.069.694 1.06 0"/>
            <path d="M26.162 16.728c-7.296.015-14.844-.22-22.083.807-.674.096-.386 1.133.282 1.038 7.137-1.013 14.61-.754 21.8-.769.685-.002.685-1.078 0-1.076m-2.818 9.278c.042-1.428-.098-2.85-.11-4.277-.006-.694-1.066-.694-1.06 0 .011 1.427.151 2.85.11 4.277-.02.694 1.04.692 1.06 0"/>
            <path d="M22.619 25.47c-5.51.014-11.02.167-16.531.18-.684.001-.684 1.077 0 1.075 5.51-.012 11.02-.165 16.531-.178.684-.002.684-1.078 0-1.076"/>
            <path d="M6.618 26.184c-.041-1.4.164-2.79.22-4.188.029-.694-1.033-.691-1.06 0-.057 1.397-.262 2.788-.22 4.188.02.692 1.08.694 1.06 0"/>
            <path d="M22.84 21.187c-5.5.006-11.041-.083-16.532.268-.678.043-.683 1.12 0 1.077 5.491-.352 11.032-.263 16.531-.269.685 0 .685-1.077 0-1.076m-.49 14.523H7.564c-.685 0-.685 1.075 0 1.075h14.785c.684 0 .684-1.076 0-1.076m.344 3.318H7.907c-.684 0-.684 1.076 0 1.076h14.786c.684 0 .684-1.076 0-1.076m0 3.587H7.907c-.684 0-.684 1.076 0 1.076h14.786c.684 0 .684-1.076 0-1.076"/>
        </g>
        <path d="M53.369 42.144c-4.604-.16-9.202.054-13.806.08-.684.005-.684 1.081 0 1.077 4.604-.027 9.202-.242 13.806-.081.684.024.682-1.053 0-1.076m.119-2.724H39.325c-.684 0-.684 1.075 0 1.075h14.163c.684 0 .684-1.076 0-1.076m.876-3.035H39.578c-.684 0-.684 1.076 0 1.076h14.786c.684 0 .684-1.076 0-1.076m-.884-2.69H38.695c-.684 0-.684 1.076 0 1.076H53.48c.684 0 .684-1.076 0-1.076m28.255 7.713c-4.603-.16-9.202.054-13.805.08-.684.005-.684 1.081 0 1.077 4.603-.027 9.202-.241 13.805-.08.685.023.683-1.054 0-1.077m.12-2.725H67.692c-.684 0-.684 1.076 0 1.076h14.163c.684 0 .684-1.076 0-1.076m.875-3.035H67.946c-.684 0-.684 1.076 0 1.076h14.786c.684 0 .684-1.076 0-1.076" fill="#705D3D"/>
        <path d="M41 59l-21.5 45.5M49 59l21.5 45.5" stroke="#705D3D" stroke-width="2" stroke-linecap="square"/>
    </g>
</svg>
