<svg width="126" height="109" viewBox="0 0 126 109" xmlns="http://www.w3.org/2000/svg">
    <title>
        Page 1
    </title>
    <g fill="none" fill-rule="evenodd">
        <path d="M50.89 50.837c1.247-.011 67.552 0 67.552 0s13.535-18.972-8.32-23.586c0 0 9.114-5.806 5.806-14.011-4.684-11.615-24.621-6.22-25.281-1.591 0 0-1.21-11.791-11.908-11.114-10.456.662-13.962 6.617-14.525 13.764 0 0 .516-13.499-17.691-9.926 0 0-12.252 3.527-9.87 13.277 0 0-5.823-5.998-14.79 0 0 0-5.988 6.178-1.711 12.133 0 0-28.63-3.176-17.512 18.915.933 1.855 48.25 2.139 48.25 2.139" fill="#828282"/>
        <path d="M53.89 50.837c1.247-.011 67.552 0 67.552 0s13.535-18.972-8.32-23.586c0 0 9.114-5.806 5.806-14.011-4.684-11.615-24.621-6.22-25.281-1.591 0 0-1.21-11.791-11.908-11.114-10.456.662-13.962 6.617-14.525 13.764 0 0 .516-13.499-17.691-9.926 0 0-12.252 3.527-9.87 13.277 0 0-5.823-5.998-14.79 0 0 0-5.988 6.178-1.711 12.133 0 0-28.63-3.176-17.512 18.915.933 1.855 48.25 2.139 48.25 2.139" fill="#BABABA"/>
        <path d="M82.123 52.36c-1.017-.01-54.967-1.948-54.967-1.948s-11.297-13.983 6.52-18.1c0 0-7.43-5.18-4.733-12.502 3.82-10.364 20.073-5.55 20.611-1.42 0 0 .986-10.522 9.71-9.918 8.523.591 11.382 5.905 11.84 12.283 0 0-.42-12.046 14.424-8.857 0 0 9.988 3.146 8.046 11.848 0 0 4.748-5.354 12.058 0 0 0 4.882 5.511 1.395 10.826 0 0 23.34-2.835 14.277 16.877-.76 1.656-39.18.912-39.18.912M42.533 73.178c0 6.898 4.95 11.989 13.986 12.489 7.713.425 13.987-5.591 13.987-12.489 0-6.897-6.262-12.487-13.987-12.487-7.724 0-13.986 5.59-13.986 12.487M29.567 89.183c-1.169 3.913 1.136 7.75 6.835 9.761 4.865 1.717 9.901-.497 11.07-4.41 1.17-3.913-1.89-8.283-6.835-9.76-4.944-1.478-9.9.496-11.07 4.41m-15.335 11.672c-.92 3.08.894 6.098 5.38 7.681 3.827 1.351 7.79-.391 8.71-3.47.921-3.08-1.487-6.518-5.378-7.681-3.89-1.163-7.792.39-8.712 3.47" fill="#E7E7E7"/>
    </g>
</svg>
