<svg width="90" height="84" viewBox="0 0 90 84" xmlns="http://www.w3.org/2000/svg">
    <title>
        Page 1
    </title>
    <g fill="none" fill-rule="evenodd">
        <path d="M89.866 83.859H.475V.526h89.391v83.333z" fill="#00886D"/>
        <path d="M8.221 7.804c7.041 7.03 14.162 13.98 21.27 20.943 1.381 1.355 3.503-.765 2.12-2.12-7.107-6.965-14.227-13.914-21.269-20.944-1.37-1.368-3.49.753-2.12 2.121" fill="#505260"/>
        <path d="M9.41 74.977c3.654.13 14.963.285 28.358.285 26.517 0 39.3-.589 42.93-1.166-.007-8.986.572-54.512.705-64.904H10.377C8.95 37.817 8.187 69.08 9.41 74.977m28.358 4.285c-14.393 0-27.815-.188-29.756-.35-2.225-.186-2.951-1.998-3.16-12.964-.11-5.826-.024-13.917.256-24.049.476-17.223 1.362-34.635 1.37-34.81l.097-1.897h78.881l-.026 2.026c-.344 26.427-.82 66.377-.722 68.124a2.147 2.147 0 0 1-.597 1.607c-.871.921-2.186 2.313-46.343 2.313" fill="#505260"/>
        <path d="M44.465 6.86c-.114 6.44-.123 12.882-.148 19.323-.008 1.935 2.992 1.935 3 0 .025-6.44.034-12.883.148-19.324.034-1.936-2.966-1.932-3 0M29.304 53.68c-7.04 7.03-14.162 13.98-21.269 20.943-1.383 1.356.74 3.476 2.122 2.122 7.106-6.964 14.227-13.914 21.268-20.944 1.371-1.368-.75-3.489-2.12-2.12m31.541.958c7.03 7.04 13.979 14.162 20.943 21.269 1.356 1.383 3.476-.74 2.122-2.122-6.964-7.106-13.914-14.227-20.944-21.268-1.368-1.371-3.489.75-2.121 2.12m1.959-25.89c7.04-7.03 14.162-13.98 21.269-20.943 1.383-1.356-.74-3.476-2.122-2.122-7.106 6.964-14.227 13.914-21.268 20.944-1.371 1.368.75 3.489 2.12 2.12M44.465 57.135c-.114 6.441-.123 12.884-.148 19.325-.008 1.934 2.992 1.934 3 0 .025-6.441.034-12.883.148-19.325.034-1.935-2.966-1.931-3 0M8.199 42.104c7.405.077 14.81.048 22.216.037 1.935-.003 1.935-3.003 0-3-7.405.011-14.811.04-22.216-.037-1.935-.02-1.933 2.98 0 3m53.168-.111c6.441.114 12.883.123 19.324.148 1.935.008 1.935-2.992 0-3-6.441-.025-12.883-.034-19.324-.148-1.936-.034-1.932 2.966 0 3" fill="#505260"/>
        <path d="M53.222 44.153c0 2.483-3.678 4.495-8.216 4.495-4.537 0-8.215-2.012-8.215-4.495s3.678-4.495 8.215-4.495c4.538 0 8.216 2.012 8.216 4.495" fill="#DA4D4C"/>
        <path d="M44.648 45.918s-11.22-6.489-7.28-19.485c0 0 4.315 2.466 7.782 8.195 1.194 1.969-.416 6.8-.502 11.29" fill="#E27777"/>
        <path d="M50.225 33.442s2.686 9.222-5.64 12.294c0 0-1.198-5.275.496-7.187.575-.65 1.69-1.484 5.144-5.107" fill="#E78D8D"/>
        <path d="M44.863 44.903s-5.88-5.133-2.459-12.58c0 0 3.268 3.329 3.75 5.798.482 2.468-.938 4.502-1.29 6.782" fill="#DA4D4C"/>
    </g>
</svg>
