<svg width="85" height="91" viewBox="0 0 85 91" xmlns="http://www.w3.org/2000/svg">
    <title>
        Page 1
    </title>
    <g fill="none" fill-rule="evenodd">
        <path d="M37.875 87.75C18.062 87.75 2 71.688 2 51.875S18.062 16 37.875 16 73.75 32.062 73.75 51.875 57.688 87.75 37.875 87.75z" fill="#E89091"/>
        <path d="M46.046 8.9H34.014c-1.1 0-2-.9-2-2V2.233c0-1.1.9-2 2-2h12.032c1.1 0 2 .9 2 2V6.9c0 1.1-.9 2-2 2" fill="#73778A"/>
        <path d="M43.703 51.4a4.304 4.304 0 1 1-8.609 0 4.304 4.304 0 0 1 8.609 0" fill="#505260"/>
        <path d="M39.641 43.192v-19" stroke="#505260" stroke-width="3" stroke-linecap="round"/>
        <path d="M58.401 16.33l2.675 1.053a1.004 1.004 0 0 0 1.297-.565l1.406-3.574a1.003 1.003 0 0 0-.564-1.297l-2.675-1.052a1.002 1.002 0 0 0-1.297.564l-1.406 3.574a1.002 1.002 0 0 0 .564 1.297m-14.58-1.805h-7.583c-.55 0-1-.45-1-1V6.858c0-.55.45-1 1-1h7.583c.55 0 1 .45 1 1v6.667c0 .55-.45 1-1 1" fill="#73778A"/>
        <path d="M57.408 83.676c-4.582 2.546-10.304 3.979-18.37 3.936-19.82-.105-36.518-16.077-35.886-35.887.718-22.533 16.067-35.887 35.887-35.887 19.819 0 35.887 16.067 35.887 35.887" stroke="#505260" stroke-width="6" stroke-linecap="round"/>
        <path d="M65.037 50.519c-.683-.863-.349-1.452.742-1.31l18.226 2.374c1.091.142 1.267.802.391 1.467l-9.25 7.023a2.056 2.056 0 0 1-2.834-.36l-7.275-9.194z" fill="#505260"/>
    </g>
</svg>
