<svg width="118" height="81" viewBox="0 0 118 81" xmlns="http://www.w3.org/2000/svg">
    <title>
        Page 1
    </title>
    <g fill="none" fill-rule="evenodd">
        <path d="M61.127 31.892c5.181 1.843 9.113 5.99 14.361 7.763 1.838.621 2.62-2.277.797-2.893-5.221-1.765-9.162-5.914-14.36-7.763-1.828-.65-2.607 2.25-.798 2.893m22.628 21.443c-1.441 3.488-3.034 6.91-4.268 10.48-.635 1.833 2.264 2.614 2.892.797 1.234-3.57 2.828-6.992 4.27-10.48.739-1.787-2.165-2.56-2.894-.797m2.213 22.028c4.885.945 9.805.853 14.76.83 1.934-.009 1.934-3.009 0-3-4.674.022-9.35.169-13.962-.723-1.89-.365-2.697 2.526-.799 2.893M4.561 17.034V41.86c0 1.934 3 1.934 3 0V17.034c0-1.935-3-1.935-3 0M16.57 50.985c10.164-7.708 20.943-14.543 31.275-22.016 1.551-1.122.056-3.727-1.514-2.59C36 33.852 25.221 40.687 15.056 48.395c-1.52 1.153-.029 3.76 1.514 2.59" fill="#73778A"/>
        <path d="M61.127 31.892c5.181 1.843 9.113 5.99 14.361 7.763 1.838.621 2.62-2.277.797-2.893-5.221-1.765-9.162-5.914-14.36-7.763-1.828-.65-2.607 2.25-.798 2.893m22.628 21.443c-1.441 3.488-3.034 6.91-4.268 10.48-.635 1.833 2.264 2.614 2.892.797 1.234-3.57 2.828-6.992 4.27-10.48.739-1.787-2.165-2.56-2.894-.797m2.213 22.028c4.885.945 9.805.853 14.76.83 1.934-.009 1.934-3.009 0-3-4.674.022-9.35.169-13.962-.723-1.89-.365-2.697 2.526-.799 2.893" fill="#D6D6D6"/>
        <path d="M10.496 51.961a4.677 4.677 0 1 1-9.354 0 4.677 4.677 0 0 1 9.354 0m50.591-31.274a5.692 5.692 0 1 1-11.384 0 5.692 5.692 0 0 1 11.384 0m26.588 23.735a4.677 4.677 0 1 1-9.354 0 4.677 4.677 0 0 1 9.354 0m-5.763 28.393a5.229 5.229 0 1 1-10.458 0 5.229 5.229 0 0 1 10.458 0m35.122 2.325c0 2.906-2.437 5.26-5.442 5.26-3.004 0-5.44-2.354-5.44-5.26 0-2.904 2.436-5.26 5.44-5.26 3.005 0 5.442 2.356 5.442 5.26M11.317 5.659a5.659 5.659 0 1 1-11.318 0 5.659 5.659 0 0 1 11.318 0" fill="#006652"/>
        <path d="M4.561 17.034V41.86c0 1.934 3 1.934 3 0V17.034c0-1.935-3-1.935-3 0M16.57 50.985c10.164-7.708 20.943-14.543 31.275-22.016 1.551-1.122.056-3.727-1.514-2.59C36 33.852 25.221 40.687 15.056 48.395c-1.52 1.153-.029 3.76 1.514 2.59" fill="#D6D6D6"/>
    </g>
</svg>
