<svg width="78" height="115" viewBox="0 0 78 115" xmlns="http://www.w3.org/2000/svg">
    <title>
        Page 1
    </title>
    <g fill="none" fill-rule="evenodd">
        <path d="M77.568 114.49l-65.654-.094.145-101.867 65.654.093-.145 101.868z" fill="#705D3D"/>
        <path d="M77.57 112.893l-63.728-.091.145-101.27 63.727.09-.145 101.27z" fill="#FFF"/>
        <path d="M20.706 19.715c-.061 4.681.148 9.358.166 14.04.003.773 1.203.773 1.2 0-.018-4.682-.227-9.359-.165-14.04.01-.773-1.19-.773-1.2 0" fill="#705D3D"/>
        <path d="M21.598 20.305c8.279-.043 16.546-.543 24.824-.586.774-.004.774-1.204 0-1.2-8.278.043-16.545.543-24.824.586-.774.004-.774 1.204 0 1.2" fill="#705D3D"/>
        <path d="M45.822 19.13c.06 4.585-.245 9.165-.33 13.747-.015.774 1.185.773 1.2 0 .085-4.583.39-9.162.33-13.747-.01-.772-1.21-.773-1.2 0" fill="#705D3D"/>
        <path d="M21.267 34.366c8.254-.017 16.794.246 24.984-.9.763-.107.437-1.263-.32-1.157-8.073 1.129-16.528.841-24.664.857-.774.002-.774 1.202 0 1.2m-.561 8.844c-.061 4.68.148 9.358.166 14.039.003.774 1.203.774 1.2 0-.018-4.681-.227-9.358-.165-14.04.01-.773-1.19-.772-1.2 0" fill="#705D3D"/>
        <path d="M21.598 43.799c8.279-.043 16.546-.543 24.824-.586.774-.004.774-1.204 0-1.2-8.278.043-16.545.543-24.824.586-.774.004-.774 1.204 0 1.2" fill="#705D3D"/>
        <path d="M45.822 42.625c.06 4.585-.245 9.164-.33 13.746-.015.775 1.185.773 1.2 0 .085-4.582.39-9.161.33-13.746-.01-.773-1.21-.774-1.2 0" fill="#705D3D"/>
        <path d="M21.267 57.86c8.254-.017 16.794.246 24.984-.9.763-.107.437-1.263-.32-1.157-8.073 1.13-16.528.841-24.664.857-.774.002-.774 1.202 0 1.2m3.189-33.84c-.047 1.592.11 3.178.124 4.77.007.773 1.207.773 1.2 0-.013-1.592-.171-3.178-.124-4.77.023-.774-1.177-.772-1.2 0" fill="#705D3D"/>
        <path d="M25.275 24.617c6.235-.015 12.468-.185 18.703-.2.774-.001.774-1.201 0-1.2-6.235.015-12.468.185-18.703.2-.774.002-.774 1.202 0 1.2" fill="#705D3D"/>
        <path d="M43.378 23.822c.047 1.56-.185 3.112-.249 4.67-.032.774 1.169.77 1.2 0 .064-1.558.296-3.11.249-4.67-.023-.772-1.223-.774-1.2 0" fill="#705D3D"/>
        <path d="M25.026 29.393c6.222-.006 12.49.093 18.703-.299.768-.047.773-1.248 0-1.2-6.212.393-12.481.294-18.703.3-.774 0-.774 1.2 0 1.2m1.361 18.124c2.746.18 5.484-.06 8.23-.09.774-.009.775-1.209 0-1.2-2.746.03-5.484.27-8.23.09-.773-.05-.768 1.15 0 1.2m-.071 3.039h8.443c.774 0 .774-1.2 0-1.2h-8.443c-.774 0-.774 1.2 0 1.2m-.522 3.384h8.814c.775 0 .775-1.2 0-1.2h-8.814c-.774 0-.774 1.2 0 1.2m12.734-7.271c-.01 2.335.023 4.669.026 7.003.001.774 1.201.774 1.2 0-.003-2.334-.036-4.668-.026-7.003.003-.774-1.197-.774-1.2 0" fill="#705D3D"/>
        <path d="M39.174 47.264c1.314-.02 2.61-.27 3.923-.292.773-.013.775-1.213 0-1.2-1.314.021-2.609.271-3.923.292-.773.013-.774 1.213 0 1.2" fill="#705D3D"/>
        <path d="M42.498 46.378c.009 2.286-.04 4.572-.052 6.857-.005.775 1.195.774 1.2 0 .013-2.285.06-4.571.052-6.857-.003-.774-1.203-.774-1.2 0" fill="#705D3D"/>
        <path d="M39.122 54.279c1.354-.01 2.967.036 4.226-.52.707-.312.096-1.346-.605-1.036-.485.213-.99.205-1.507.23-.706.034-1.406.122-2.114.126-.774.005-.774 1.205 0 1.2M20.706 67.716c-.061 4.68.148 9.358.166 14.038.003.774 1.203.774 1.2 0-.018-4.68-.227-9.358-.165-14.038.01-.774-1.19-.773-1.2 0" fill="#705D3D"/>
        <path d="M21.598 68.305c8.279-.043 16.546-.543 24.824-.586.774-.004.774-1.204 0-1.2-8.278.043-16.545.543-24.824.586-.774.004-.774 1.204 0 1.2" fill="#705D3D"/>
        <path d="M45.822 67.13c.06 4.586-.245 9.165-.33 13.746-.015.775 1.185.773 1.2 0 .085-4.582.39-9.16.33-13.746-.01-.772-1.21-.773-1.2 0" fill="#705D3D"/>
        <path d="M21.267 82.366c8.254-.017 16.794.246 24.984-.9.763-.107.437-1.263-.32-1.157-8.073 1.129-16.528.841-24.664.857-.774.002-.774 1.202 0 1.2m-.561 8.844c-.061 4.68.148 9.358.166 14.039.003.774 1.203.774 1.2 0-.018-4.681-.227-9.358-.165-14.04.01-.773-1.19-.772-1.2 0" fill="#705D3D"/>
        <path d="M21.598 91.799c8.279-.043 16.546-.543 24.824-.586.774-.004.774-1.204 0-1.2-8.278.043-16.545.543-24.824.586-.774.004-.774 1.204 0 1.2" fill="#705D3D"/>
        <path d="M45.822 90.625c.06 4.585-.245 9.164-.33 13.746-.015.775 1.185.773 1.2 0 .085-4.582.39-9.161.33-13.746-.01-.773-1.21-.774-1.2 0" fill="#705D3D"/>
        <path d="M21.267 105.86c8.254-.017 16.794.246 24.984-.9.763-.107.437-1.263-.32-1.157-8.073 1.13-16.528.841-24.664.857-.774.002-.774 1.202 0 1.2m3.189-33.84c-.047 1.592.11 3.178.124 4.77.007.773 1.207.773 1.2 0-.013-1.592-.171-3.178-.124-4.77.023-.774-1.177-.772-1.2 0" fill="#705D3D"/>
        <path d="M25.275 72.617c6.235-.015 12.468-.185 18.703-.2.774-.001.774-1.201 0-1.2-6.235.015-12.468.185-18.703.2-.774.002-.774 1.202 0 1.2" fill="#705D3D"/>
        <path d="M43.378 71.822c.047 1.56-.185 3.112-.249 4.67-.032.774 1.169.77 1.2 0 .064-1.558.296-3.11.249-4.67-.023-.772-1.223-.774-1.2 0" fill="#705D3D"/>
        <path d="M25.026 77.394c6.222-.007 12.49.093 18.703-.3.768-.047.773-1.247 0-1.2-6.212.392-12.481.293-18.703.3-.774 0-.774 1.2 0 1.2m10.27 17.276c-.018 2.335.042 4.669.047 7.003.002.774 1.202.774 1.2 0-.005-2.334-.065-4.668-.047-7.003.006-.774-1.194-.774-1.2 0" fill="#705D3D"/>
        <path d="M35.98 95.264c2.372-.02 4.734-.27 7.107-.292.773-.007.774-1.207 0-1.2-2.373.021-4.735.271-7.108.292-.773.007-.774 1.207 0 1.2" fill="#705D3D"/>
        <path d="M42.487 94.378c.017 2.286-.07 4.572-.095 6.857-.008.775 1.192.774 1.2 0 .025-2.285.112-4.571.095-6.857-.006-.774-1.206-.774-1.2 0" fill="#705D3D"/>
        <path d="M35.884 102.279c2.365-.008 4.954.104 7.267-.46.752-.183.433-1.34-.319-1.157-2.193.535-4.7.409-6.948.417-.774.003-.774 1.203 0 1.2" fill="#705D3D"/>
        <path d="M52.92 22.518c5.207.18 10.41-.06 15.618-.09.775-.005.775-1.205 0-1.2-5.207.03-10.41.27-15.618.09-.775-.027-.773 1.174 0 1.2m-.135 3.039h16.023c.774 0 .774-1.2 0-1.2H52.785c-.774 0-.774 1.2 0 1.2" fill="#FFF"/>
        <path d="M51.794 28.941h16.728c.773 0 .773-1.2 0-1.2H51.793c-.773 0-.773 1.2 0 1.2m2.127 16.577c5.207.18 10.41-.06 15.618-.09.775-.005.775-1.205 0-1.2-5.207.03-10.41.27-15.618.09-.775-.027-.773 1.174 0 1.2m-.135 3.039h16.023c.774 0 .774-1.2 0-1.2H53.785c-.774 0-.774 1.2 0 1.2m-.991 3.384h16.728c.773 0 .773-1.2 0-1.2H52.793c-.773 0-.773 1.2 0 1.2m1.001 3h16.728c.773 0 .773-1.2 0-1.2H53.793c-.773 0-.773 1.2 0 1.2m.127 15.577c5.207.18 10.41-.06 15.618-.09.775-.005.775-1.205 0-1.2-5.207.03-10.41.27-15.618.09-.775-.027-.773 1.174 0 1.2m-.135 3.039h16.023c.774 0 .774-1.2 0-1.2H53.785c-.774 0-.774 1.2 0 1.2m-.991 3.384h16.728c.773 0 .773-1.2 0-1.2H52.793c-.773 0-.773 1.2 0 1.2m1.127 17.577c5.207.18 10.41-.06 15.618-.09.775-.005.775-1.205 0-1.2-5.207.03-10.41.27-15.618.09-.775-.027-.773 1.174 0 1.2m-.135 3.039h16.023c.774 0 .774-1.2 0-1.2H53.785c-.774 0-.774 1.2 0 1.2m-.991 3.384h16.728c.773 0 .773-1.2 0-1.2H52.793c-.773 0-.773 1.2 0 1.2" fill="#705D3D"/>
        <path d="M23.56 21.668l-7.897-1.683-6.626 6.275-.95-9.076-7.933-5.067L8.41 9.113l1.673-8.97 6.103 6.784 7.732-1.754-3.25 8.473 2.892 8.022z" fill="#EAAB14"/>
        <path d="M27.8 94.613c-4.283-.692-4.07 5.267-.94 6.682 2.228 1.007 4.55-.445 4.797-2.799.118-1.123-.412-2.5-1.316-3.188-.987-.752-2.256-.844-3.45-.966-.77-.079-.761 1.121 0 1.2 1.809.185 3.392.508 3.569 2.641.165 1.983-2.056 2.71-3.513 1.798-1.512-.945-2.014-4.623.535-4.21.757.121 1.08-1.035.319-1.158" fill="#705D3D"/>
    </g>
</svg>
