<svg width="59" height="140" viewBox="0 0 59 140" xmlns="http://www.w3.org/2000/svg">
    <title>
        Group 7
    </title>
    <g fill="none" fill-rule="evenodd">
        <path d="M12.474 80.192h35.464s-.417 31.562-.35 32.697c.066 1.135-36.307 1.732-36.307.314 0-1.42 1.193-33.011 1.193-33.011M2.17.192h54.72s-.643 48.506-.54 50.257c.102 1.75-56.022 2.77-56.022.582C.33 48.84 2.17.19 2.17.19" fill="#00886D"/>
        <path d="M3.84 1.192h54.722s-.643 48.506-.54 50.257C58.124 53.199 2 54.219 2 52.03 2 49.84 3.84 1.19 3.84 1.19" fill="#D6D6D6"/>
        <path d="M27.976 58.108c.012 4.68.169 9.352.519 14.02.144 1.917 3.145 1.93 3 0a194.63 194.63 0 0 1-.52-14.02c-.004-1.934-3.004-1.935-3 0" fill="#00886D"/>
        <path d="M21.82 68.899c2.603 1.67 4.591 5.299 7.656 6.11 4.043 1.072 6.662-5.654 7.896-8.206.838-1.733-1.749-3.255-2.59-1.514-.616 1.273-3.186 8.116-5.363 6.377-2.136-1.706-3.748-3.857-6.086-5.357-1.633-1.05-3.136 1.549-1.514 2.59m6.157 53.209c.012 4.68.169 9.352.519 14.02.144 1.917 3.145 1.93 3 0a194.63 194.63 0 0 1-.52-14.02c-.004-1.934-3.004-1.935-3 0" fill="#00886D"/>
        <path d="M21.82 132.899c2.603 1.67 4.591 5.299 7.656 6.11 4.043 1.072 6.662-5.654 7.896-8.206.838-1.733-1.749-3.255-2.59-1.514-.616 1.273-3.186 8.116-5.363 6.377-2.136-1.706-3.748-3.857-6.086-5.357-1.633-1.05-3.136 1.549-1.514 2.59" fill="#00886D"/>
        <g fill="#505360">
            <path d="M37.645 18.143c1.424 2.593 2.922 5.078 4.829 7.349.748.89 2.014-.391 1.273-1.273-1.806-2.15-3.2-4.531-4.548-6.984-.56-1.018-2.113-.11-1.554.908"/>
            <path d="M45.469 16.979c-1.184 4.77-2.278 9.812-4.81 14.079-.594 1 .963 1.905 1.554.908 2.616-4.407 3.769-9.584 4.992-14.508.279-1.127-1.456-1.605-1.736-.48m-20.692.665c-.016 3.358.007 6.69-.765 9.898-.677-2.124-1.33-4.236-2.474-6.242-.311-.544-1.267-.518-1.554.11-.97 2.122-1.637 4.392-2.18 6.676-1.164-3.224-1.166-7.072-1.006-10.328.057-1.16-1.744-1.141-1.8.014-.215 4.364-.1 9.753 2.348 13.548.394.61 1.478.474 1.645-.333.479-2.32 1.022-4.593 1.84-6.923.952 2.344 1.5 4.64 2.34 6.93.322.879 1.398.888 1.736.06 1.705-4.177 1.648-8.765 1.67-13.204.006-1.161-1.794-1.366-1.8-.206m4.064-.163c-.12 4.555-.178 9.281.417 13.805.15 1.134 1.951 1.149 1.8 0-.595-4.524-.537-9.25-.417-13.805.031-1.161-1.769-1.158-1.8 0m5.419.208c.077 4.53.782 9.016.833 13.545.012 1.16 1.812 1.161 1.8 0-.05-4.529-.756-9.015-.834-13.545-.02-1.159-1.82-1.16-1.8 0"/>
            <path d="M29.141 27.192h5c1 0 1-2 0-2h-5c-1 0-1 2 0 2 0 0-1 0 0 0"/>
        </g>
        <path d="M14.474 79.192h35.464s-.417 31.562-.35 32.697c.066 1.135-36.307 1.732-36.307.314 0-1.42 1.193-33.011 1.193-33.011" fill="#D6D6D6"/>
        <g fill="#505360">
            <path d="M35.746 92.173c.995 1.811 2.043 3.541 3.375 5.127.748.89 2.015-.39 1.273-1.273-1.23-1.464-2.176-3.092-3.094-4.762-.56-1.018-2.113-.11-1.554.908"/>
            <path d="M41.116 91.155c-.811 3.267-1.556 6.724-3.29 9.647-.594 1.001.962 1.906 1.554.908 1.816-3.061 2.622-6.655 3.472-10.076.279-1.127-1.456-1.605-1.736-.479m-14.286.507c-.01 1.875.002 4.01-.279 5.834-.383-1.174-.8-2.352-1.437-3.466-.31-.545-1.267-.532-1.554.096-.545 1.193-.948 2.455-1.286 3.734-.5-1.98-.486-4.19-.392-6.096.057-1.161-1.743-1.143-1.8.012-.15 3.06-.057 6.829 1.658 9.489.394.61 1.478.622 1.645-.184.28-1.351.591-2.65 1.02-3.966.493 1.326.837 2.636 1.326 3.97.322.879 1.397.814 1.736-.015 1.185-2.902 1.147-6.127 1.162-9.212.006-1.161-1.794-1.356-1.8-.196m2.805-.087c-.083 3.143-.123 6.403.288 9.525.149 1.134 1.95 1.148 1.8 0-.411-3.122-.371-6.382-.288-9.525.03-1.16-1.77-1.158-1.8 0m3.738.144c.054 3.125.54 6.22.575 9.345.013 1.16 1.813 1.162 1.8 0-.035-3.125-.521-6.22-.575-9.345-.02-1.16-1.82-1.161-1.8 0"/>
            <path d="M30.141 99.192h3c1 0 1-2 0-2h-3c-1 0-1 2 0 2 0 0-1 0 0 0"/>
        </g>
    </g>
</svg>
