<svg width="168" height="136" viewBox="0 0 168 136" xmlns="http://www.w3.org/2000/svg">
    <title>
        Page 1
    </title>
    <g fill="none" fill-rule="evenodd">
        <path d="M107.728 86.192s-.61 46.017-.513 47.682c.097 1.664-50.916 2.454-53.248.596-1.627-1.296 1.75-48.278 1.75-48.278h52.011z" fill="#FFF"/>
        <path d="M103.23 98.495c-1.092-3.358.84-6.995 4.313-8.124 3.473-1.13 7.173.677 8.265 4.035 1.092 3.357-.839 6.995-4.313 8.124-3.473 1.129-7.172-.677-8.264-4.035" fill="#505260"/>
        <path d="M62.856 93.865c-.087 2.969.206 5.926.232 8.893.008.967 1.508.968 1.5 0-.026-2.967-.32-5.924-.232-8.893.029-.968-1.472-.965-1.5 0" fill="#F13A37"/>
        <path d="M64.015 94.608c11.627-.02 23.25-.351 34.877-.371.967-.002.967-1.502 0-1.5-11.627.02-23.25.35-34.877.37-.967.003-.967 1.503 0 1.5" fill="#F13A37"/>
        <path d="M98.142 93.494c.087 2.911-.346 5.804-.464 8.708-.04.968 1.46.964 1.5 0 .118-2.904.55-5.797.464-8.708-.03-.965-1.53-.968-1.5 0" fill="#F13A37"/>
        <path d="M63.55 103.515c11.595 0 23.3.213 34.877-.557.96-.064.966-1.564 0-1.5-11.576.77-23.282.556-34.877.557-.967 0-.967 1.5 0 1.5m16.425 7.46c4.505.23 9.003-.077 13.51-.116.966-.009.967-1.509 0-1.5-4.507.04-9.005.346-13.51.116-.967-.049-.962 1.451 0 1.5m-.116 5.125h13.858c.968 0 .968-1.5 0-1.5H79.859c-.967 0-.967 1.5 0 1.5m-.858 4.36H93.47c.967 0 .967-1.5 0-1.5H79.001c-.967 0-.967 1.5 0 1.5" fill="#F13A37"/>
        <path d="M61.338 116.725c-1.092-3.358.84-6.995 4.313-8.124 3.473-1.129 7.173.677 8.265 4.035 1.092 3.357-.839 6.995-4.313 8.124-3.473 1.13-7.173-.677-8.265-4.035z" stroke="#F13A37"/>
        <path d="M49.345 65.06l15.407 6.869-1.755-15.584a28.74 28.74 0 0 0 6.712-12.358c4.62-17.907-6.95-36.664-25.842-41.904C24.972-3.159 5.91 7.106 1.291 25.013c-4.62 17.907 6.004 35.304 24.895 40.543 7.759 2.152 15.705 1.92 22.697-.343l-1.026 1.418 1.026-1.418c.154-.05.308-.1.462-.153zm80.006 3.542l-12.833 3.451 3.593-12.253-1.446-.683 1.446.683c-2.25-4.43-3.274-8.6-3.316-12.536a29.223 29.223 0 0 1 .039-5.153c1.386-14.452 13.184-24.017 27.474-22.393 14.29 1.624 24.747 14.658 23.359 29.114-1.387 14.452-14.091 24.85-28.381 23.226a23.803 23.803 0 0 1-9.935-3.456z" fill="#505260"/>
    </g>
</svg>
