<svg width="112" height="101" viewBox="0 0 112 101" xmlns="http://www.w3.org/2000/svg">
    <title>
        Page 1
    </title>
    <g fill="none" fill-rule="evenodd">
        <path d="M92.54 27.313l16.58 8.55-17.627 10.273 1.048-18.823z" fill="#EAAB14"/>
        <path d="M94.596 33.1L.54 29.707c0 2.202.05 4.406.173 6.611l93.46 5.032.422-8.25z" fill="#EAAB14"/>
        <path d="M26.317 80.202l-18.86-6.817L24.824 59.99l1.493 20.212z" fill="#DF9E15"/>
        <path d="M22.076 75.007l89.348-8.187c-.19-2.438-.442-4.87-.77-7.293l-89.263 6.72.685 8.76z" fill="#DF9E15"/>
        <path d="M32.366 19.36l.12-18.653 17.137 11.066-17.257 7.587z" fill="#D89616"/>
        <path d="M36.596 14.908l39.555 85.4a117.822 117.822 0 0 0 5.815-3.147L44.144 11.55l-7.548 3.358z" fill="#D89616"/>
    </g>
</svg>
