<svg width="121" height="147" viewBox="0 0 121 147" xmlns="http://www.w3.org/2000/svg">
    <title>
        Page 1
    </title>
    <g fill="none" fill-rule="evenodd">
        <path d="M5.211 94.613c-1.423-4.376 1.094-9.117 5.621-10.588 4.527-1.472 9.35.882 10.772 5.258 1.423 4.376-1.093 9.117-5.62 10.59-4.527 1.47-9.35-.884-10.773-5.26m105.7-52.479a4.677 4.677 0 1 1 9.354 0 4.677 4.677 0 0 1-9.354 0" fill="#E78D8D"/>
        <path d="M59.511 69.691a8.067 8.067 0 1 1 16.135 0 8.067 8.067 0 0 1-16.135 0" fill="#FFF"/>
        <path d="M99.976 102.29a5.23 5.23 0 1 1 9.368-4.654 5.23 5.23 0 0 1-9.368 4.654" fill="#E78D8D"/>
        <path d="M92.464 126.867c2.641-5.855 5.432-11.638 7.857-17.587.731-1.791-2.172-2.564-2.892-.797-2.327 5.709-5.02 11.252-7.555 16.87-.789 1.748 1.795 3.275 2.59 1.514M36.766 22.129c-7.847-.345-15.527.984-23.255 2.156-1.907.29-1.095 3.18.797 2.893 7.47-1.133 14.876-2.382 22.458-2.05 1.934.086 1.927-2.914 0-3" fill="#FFF"/>
        <path d="M103.142 4.178a5.658 5.658 0 1 1-10.233 4.837 5.658 5.658 0 0 1 10.233-4.837" fill="#E78D8D"/>
        <path d="M101.236 17.603l7.78 16.46c.827 1.75 3.413.225 2.59-1.514l-7.78-16.46c-.826-1.748-3.412-.225-2.59 1.514" fill="#FFF"/>
        <path d="M52.147 20.626a6.234 6.234 0 1 1-11.135 5.616 6.234 6.234 0 0 1 11.135-5.616M9.464 24.749A4.999 4.999 0 1 1 .538 29.25a4.999 4.999 0 0 1 8.926-4.502" fill="#E78D8D"/>
        <path d="M50.13 34.19l10.793 24.647c.775 1.77 3.359.24 2.59-1.514L52.722 32.675c-.774-1.769-3.358-.24-2.59 1.514m56.412 10.628c-8.908 6.75-18.346 12.744-27.4 19.288-1.552 1.122-.057 3.726 1.514 2.591 9.055-6.544 18.492-12.54 27.4-19.289 1.52-1.152.029-3.759-1.514-2.59M74.831 81.144c6.853 4.785 13.246 10.175 19.976 15.126 1.561 1.148 3.055-1.457 1.514-2.59-6.73-4.952-13.122-10.341-19.976-15.126-1.59-1.111-3.088 1.49-1.514 2.59" fill="#FFF"/>
        <path d="M77.398 141.027c-1.423-4.376 1.094-9.117 5.62-10.588 4.528-1.472 9.35.882 10.773 5.258s-1.093 9.117-5.62 10.589c-4.527 1.47-9.35-.883-10.773-5.26" fill="#E78D8D"/>
        <path d="M26.683 88.403l29.038-10.767c1.798-.665 1.021-3.566-.797-2.892L25.885 85.51c-1.797.667-1.02 3.567.798 2.893" fill="#FFF"/>
    </g>
</svg>
