<svg width="97" height="81" viewBox="0 0 97 81" xmlns="http://www.w3.org/2000/svg">
    <title>
        Page 1
    </title>
    <g fill="none" fill-rule="evenodd">
        <path d="M18.199.192h59.524s-.7 52.516-.588 54.42c.11 1.905-60.938 3.138-60.938.757S18.199.192 18.199.192" fill="#00886D"/>
        <path d="M37.342 16.192h59.524s-.699 52.397-.588 54.3c.111 1.906-60.938 3.198-60.938.817 0-2.38 2.002-55.117 2.002-55.117" fill="#CECECE"/>
        <path d="M66.732 52.687c5.872-5.523 10.995-7.839 8.88-13.622-1.61-3.625-6.909-3.542-8.368-.488-1.233-3.152-6.555-4.385-8.38-.12-.842 4.965 2.412 8.296 7.868 14.23" fill="#505260"/>
        <path d="M2.389 24.192h59.524s-.7 52.275-.588 54.18c.11 1.905-60.938 3.258-60.938.877 0-2.381 2.002-55.057 2.002-55.057" fill="#009A7C"/>
        <path d="M38.463 58.683l-7.073-1.507-5.935 5.62-.85-8.13-7.106-4.537 7.395-2.69 1.498-8.035 5.466 6.076 6.926-1.571-2.911 7.589 2.59 7.185z" fill="#505260"/>
    </g>
</svg>
