<svg width="117" height="130" viewBox="0 0 117 130" xmlns="http://www.w3.org/2000/svg">
    <title>
        Page 1
    </title>
    <g fill="none" fill-rule="evenodd">
        <path d="M89.479 60.192h26.972s-.317 23.628-.266 24.49c.05.864-27.613 1.507-27.613.428 0-1.08.907-24.918.907-24.918" fill="#D6D6D6"/>
        <path d="M9.055.66l26.72.792s-.317 23.747-.266 24.61c.05.863-27.613 1.447-27.613.368 0-1.079 1.16-25.77 1.16-25.77" fill="#007861"/>
        <path d="M72.921 31.192h26.972s-.266 24.388-.216 25.25c.051.864-27.663.695-27.663-.384 0-1.078.907-24.866.907-24.866m-42.053-2H57.84s-.317 24.26-.266 25.123c.05.864-26.58 1.503-26.58.424 0-1.078-.126-25.547-.126-25.547" fill="#505260"/>
        <path d="M1.225 29.192h26.972s-.317 24.1-.266 24.964c.05.863-27.613 1.27-27.613.19 0-1.078.907-25.154.907-25.154" fill="#007861"/>
        <path d="M84.141 12.192h27.365s-.06 23.523-.009 24.386c.05.863-27.356 1.633-27.356.554v-24.94z" fill="#D6D6D6"/>
        <path d="M71.582 115.893l-3.163-16.295-5.568-18.22c-.856-2.469-3.287-3.907-5.71-3.095-2.421.813-3.453 3.414-2.597 5.882l-1.13-3.259c-.855-2.469-3.287-3.907-5.708-3.094-2.422.813-3.454 3.413-2.6 5.882l-.828-2.392c-.855-2.468-3.72-3.76-6.142-2.948-1.81.607-3.073 2.291-3.193 4.118l-6.58-15.532c-1.013-2.41-3.944-4.388-6.305-3.415-2.36.973-3.012 3.84-2 6.25l16.167 40.417-13.238-11.118c-2.103-2.064-4.281-2.813-5.845-.632-1.565 2.181.128 6.352 2.23 8.416l16.136 17.23c11.236 4.498 16.089-1.313 28.967-1.313 2.172 0 1.447-1.36 3.583-1.5.583-2.332 1.903-2.029 3.524-5.382l-35.24 15.733" fill="#505260"/>
        <path d="M68.182 95.799l-5.568-18.513c-.856-2.507-3.287-3.97-5.708-3.143-2.422.826-3.454 3.468-2.599 5.976l-1.129-3.312c-.855-2.508-3.286-3.97-5.708-3.143-2.422.826-3.453 3.468-2.598 5.976l-.829-2.43c-.855-2.508-3.72-3.821-6.14-2.996-1.81.618-3.075 2.329-3.195 4.185L28.13 62.618c-1.013-2.448-3.795-3.634-6.156-2.645-2.36.989-3.474 3.805-2.46 6.253l17.216 41.642-13.976-12.602c-2.102-2.097-5.104-2-6.668.217-1.565 2.216-1.125 5.744.977 7.84 0 0 9.072 9.85 13.927 14.924l.506.528c4.698 4.881 5.168 5.532 5.168 5.532 8.043 5.683 13.086 6.281 21.883 5.345 7.57-.806 11.56-5.5 11.503-5.44 1.837-3.892 1.985-6.543 1.295-11.858l-3.162-16.555z" fill="#D6D6D6"/>
    </g>
</svg>
