<svg width="80" height="107" viewBox="0 0 80 107" xmlns="http://www.w3.org/2000/svg">
    <title>
        Page 1
    </title>
    <g fill="none" fill-rule="evenodd">
        <path d="M7.286 34.522l24.834-7.7-5.034-16.236S25.4-3.297 11.55.996C-2.3 5.29 1.041 17.613 1.041 17.613M34.223 80.04c2.152 6.321 5.193 12.783 9.64 17.811 3.157 3.57 9.166 4.891 11.15-.61 1.187-3.294 1.575-6.813 2.639-10.148 1.66-5.208 4.652-.44 6.652 1.918 4.37 5.157 9.346 10.964 12.404 17.051.868 1.73 3.456.21 2.59-1.515-2.61-5.195-6.755-9.944-10.315-14.498-1.807-2.313-6.961-10.863-11.036-8.316-4.161 2.6-3.964 17.217-8.765 16.298-3.51-.672-6.077-6.044-7.621-8.804a60.358 60.358 0 0 1-4.445-9.986c-.62-1.82-3.518-1.039-2.893.798" fill="#505260"/>
        <path d="M15.29 29.946l8.596-2.665 17.471 56.354L32.76 86.3 15.29 29.946z" fill="#00886D"/>
    </g>
</svg>
