<svg width="117" height="98" viewBox="0 0 117 98" xmlns="http://www.w3.org/2000/svg">
    <title>
        Page 1
    </title>
    <g fill="none" fill-rule="evenodd">
        <path d="M52.617 13.636c16.07.639 32.146 1.08 48.221 1.56 1.935.058 1.93-2.942 0-3-16.075-.48-32.15-.921-48.22-1.56-1.936-.077-1.929 2.923 0 3m.217 9.962c17.055-.312 34.167.355 51.23.36 1.936.001 1.935-2.999 0-3-17.063-.005-34.175-.672-51.23-.36-1.932.035-1.936 3.035 0 3m.613 9.362c6.736.845 13.955.16 20.757.26 8.321.122 16.643.2 24.966.22 1.934.005 1.934-2.995 0-3a2124.5 2124.5 0 0 1-23.138-.194c-7.393-.1-15.264.632-22.585-.286-1.916-.24-1.893 2.763 0 3M46.403 7.192s-.503 37.316-.423 38.685c.08 1.369-41.893 2.293-43.811.764C.83 45.575 3.608 7.19 3.608 7.19h42.795zm-42.795 50h42.795s-.503 37.52-.423 38.89c.08 1.369-41.893 2.19-43.811.662C.83 95.677 3.608 57.192 3.608 57.192m52.009 11.029c16.64.64 33.285 1.08 49.93 1.56 1.936.056 1.93-2.944 0-3-16.645-.48-33.29-.92-49.93-1.56-1.935-.074-1.928 2.926 0 3m.24 9.962c17.11-.312 34.277.355 51.395.36 1.935.001 1.935-2.999 0-3-17.118-.005-34.285-.672-51.395-.36-1.932.035-1.936 3.035 0 3m.678 9.362c7.602.97 15.773.165 23.445.267 9.027.12 18.056.194 27.085.213 1.935.004 1.935-2.996 0-3a2521 2521 0 0 1-27.085-.213c-7.672-.099-15.844.702-23.445-.267-1.914-.244-1.891 2.76 0 3" fill="#FFF"/>
        <path d="M.233 7.63C-.665 4.869.923 1.877 3.782.948c2.858-.93 5.902.557 6.8 3.319.898 2.763-.69 5.756-3.547 6.685-2.858.929-5.904-.557-6.802-3.32M42.234 66.63c-.899-2.762.69-5.754 3.547-6.683 2.858-.93 5.904.557 6.801 3.319.899 2.763-.69 5.756-3.548 6.685-2.857.929-5.902-.557-6.8-3.32" fill="#505260"/>
        <path d="M96.234 12.63c-.898-2.762.69-5.754 3.547-6.683 2.858-.93 5.904.557 6.802 3.319.898 2.763-.69 5.756-3.548 6.685-2.858.929-5.903-.557-6.801-3.32" fill="#C82A29"/>
        <path d="M106.233 23.63c-.898-2.762.69-5.754 3.548-6.683 2.858-.93 5.904.557 6.802 3.319.898 2.763-.69 5.756-3.548 6.685-2.858.929-5.904-.557-6.802-3.32" fill="#5C5F6E"/>
        <path d="M9.5 62.821c-.073 2.443.17 4.876.19 7.317.007.774 1.207.774 1.2 0-.02-2.44-.263-4.874-.19-7.317.022-.774-1.178-.772-1.2 0" fill="#F13A37"/>
        <path d="M10.436 63.416c9.566-.02 19.13-.286 28.696-.305.774-.002.774-1.202 0-1.2-9.566.019-19.13.286-28.696.305-.774.002-.774 1.202 0 1.2" fill="#F13A37"/>
        <path d="M38.532 62.516c.07 2.395-.285 4.775-.382 7.165-.032.774 1.169.771 1.2 0 .097-2.39.453-4.77.382-7.165-.023-.772-1.223-.774-1.2 0" fill="#F13A37"/>
        <path d="M10.053 70.745c9.544-.006 19.168.157 28.696-.458.768-.05.773-1.25 0-1.2-9.528.615-19.152.452-28.696.458-.774 0-.774 1.2 0 1.2m13.515 6.137c3.707.19 7.408-.064 11.115-.096.774-.007.774-1.207 0-1.2-3.707.032-7.408.285-11.115.097-.774-.04-.77 1.16 0 1.2m-.096 4.216h11.403c.773 0 .773-1.2 0-1.2H23.472c-.774 0-.774 1.2 0 1.2m-.706 3.587H34.67c.774 0 .774-1.2 0-1.2H22.766c-.774 0-.774 1.2 0 1.2" fill="#F13A37"/>
        <path d="M8.233 81.63c-.897-2.762.69-5.754 3.549-6.683 2.857-.93 5.902.557 6.8 3.319.898 2.763-.69 5.756-3.547 6.685-2.859.929-5.903-.557-6.802-3.32z" stroke="#F13A37"/>
        <path d="M13.353 31.883c7.34.189 14.676-.064 22.017-.097.774-.003.774-1.203 0-1.2-7.34.032-14.676.285-22.017.096-.773-.02-.772 1.18 0 1.2m-.189 4.217h22.585c.774 0 .774-1.2 0-1.2H13.164c-.774 0-.774 1.2 0 1.2m-1.398 3.587h23.58c.773 0 .773-1.2 0-1.2h-23.58c-.774 0-.774 1.2 0 1.2" fill="#F13A37"/>
        <path d="M17.475 22.877c-1.03-3.167.792-6.598 4.068-7.664 3.277-1.065 6.768.64 7.797 3.806 1.03 3.168-.79 6.6-4.068 7.664-3.276 1.065-6.767-.639-7.797-3.806z" stroke="#F13A37"/>
    </g>
</svg>
