<svg width="109" height="97" viewBox="0 0 109 97" xmlns="http://www.w3.org/2000/svg">
    <title>
        Page 1
    </title>
    <g fill="none" fill-rule="evenodd">
        <path d="M104.805 52.192H58.329s.546 40.09.459 41.538c-.087 1.448 47.58 2.29 47.58.482 0-1.81-1.563-42.02-1.563-42.02m-102.87-1h47.752s-.561 42.328-.471 43.856c.089 1.528-48.887 2.418-48.887.508 0-1.91 1.606-44.364 1.606-44.364m57.957-48h46.476s-.546 41.003-.46 42.483c.088 1.48-47.58 2.342-47.58.492s1.564-42.975 1.564-42.975m-57.957-3h47.752s-.561 41.253-.471 42.742c.089 1.49-48.887 2.364-48.887.502C.329 41.574 1.935.192 1.935.192" fill="#00886D"/>
        <path d="M89.245 17.03l.384 14.17c.037 1.35 2.137 1.354 2.1 0l-.384-14.17c-.037-1.352-2.137-1.356-2.1 0" fill="#FFF"/>
        <path d="M92.23 24.744l3.078-.083c1.35-.037 1.355-2.137 0-2.1l-3.077.083c-1.351.037-1.355 2.137 0 2.1m-2.868-6.412h5.572c1.355 0 1.355-2.1 0-2.1h-5.572c-1.354 0-1.354 2.1 0 2.1m2.493 13.885c2.051-.056 4.103-.11 6.154-.167 1.351-.037 1.355-2.137 0-2.1l-6.154.167c-1.351.037-1.355 2.137 0 2.1M99.849 16.4c.167 5.096.685 10.17.852 15.265.044 1.35 2.144 1.355 2.1 0-.167-5.095-.685-10.17-.852-15.264-.044-1.351-2.144-1.355-2.1 0m-35.671 1.312c-.108 4.713.18 10.55 2.964 14.55.467.671 1.741.725 1.92-.25.578-3.17 1.24-6.423 2.526-9.393h-1.814c1.762 2.85 2.502 6.144 3.747 9.224.397.982 1.637 1.01 2.025 0 1.748-4.545 1.56-9.519 1.454-14.306-.03-1.352-2.13-1.355-2.1 0 .102 4.613.305 9.368-1.379 13.748h2.025c-1.313-3.248-2.1-6.722-3.958-9.726-.374-.604-1.484-.762-1.814 0-1.365 3.154-2.122 6.523-2.738 9.894l1.92-.25c-2.589-3.718-2.778-9.11-2.678-13.49.031-1.356-2.069-1.353-2.1 0m14.212-.699c.003 5.002.1 10.17.888 15.118.212 1.335 2.235.766 2.025-.558-.757-4.753-.81-9.755-.814-14.56 0-1.354-2.1-1.354-2.1 0m6.819.039c.216 4.871 1.105 9.676 1.292 14.547.052 1.35 2.152 1.355 2.1 0-.187-4.87-1.076-9.676-1.292-14.547-.06-1.349-2.16-1.354-2.1 0" fill="#FFF"/>
        <path d="M81.097 26.32l5.38-.146c1.352-.037 1.355-2.137 0-2.1-1.793.05-3.587.097-5.38.146-1.351.037-1.355 2.137 0 2.1" fill="#FFF"/>
        <path d="M4.363 1.192h45.6s-.535 40.32-.45 41.78c.085 1.46-44.639 2.164-46.684.535C1.403 42.37 4.363 1.192 4.363 1.192m1 51h45.6s-.535 40.679-.45 42.138c.085 1.459-44.639 1.985-46.684.356-1.426-1.137 1.534-42.494 1.534-42.494m101.077 43H60.243s.542-40.471.456-41.93c-.086-1.46 45.223-2.09 47.295-.46 1.445 1.137-1.554 42.39-1.554 42.39m.403-50h-45.6s.535-40.828.45-42.287c-.085-1.46 44.64-1.91 46.684-.282 1.426 1.137-1.534 42.569-1.534 42.569" fill="#D6D6D6"/>
        <path d="M40.054 68.136c.331 3.688.63 7.375.758 11.078.047 1.35 2.147 1.354 2.1 0-.13-3.728-.43-7.441-.765-11.154 1.241-.053 2.482-.12 3.723-.198 1.345-.084 1.353-2.185 0-2.1-3.078.193-6.153.322-9.237.33-1.354.004-1.354 2.104 0 2.1a128.86 128.86 0 0 0 3.421-.056zm-17.152 6.532a52.26 52.26 0 0 0 .382 4.536c.176 1.34-1.926 1.323-2.1 0-.546-4.146-.492-8.478-.382-12.653.036-1.352 2.136-1.355 2.1 0-.052 1.982-.092 4-.06 6.017h3.285c-.165-1.939-.325-3.878-.36-5.826-.022-1.355 2.078-1.353 2.1 0 .073 4.152.719 8.263.765 12.415.015 1.354-2.085 1.353-2.1 0-.017-1.5-.112-2.996-.23-4.49h-3.4zm76.49-49.575c-1.047-2.128-2.193-4.233-2.813-6.5a1.276 1.276 0 0 0-.014-.047v-.002c-.044-1.35-2.144-1.355-2.1 0 .129 3.946.53 7.877.66 11.823.044 1.35 2.144 1.355 2.1 0-.061-1.864-.183-3.726-.308-5.587.441.886.883 1.77 1.282 2.664.433.968.69 1.98 1.076 2.97.2.51.658.72 1.096.705.593.117 1.279-.213 1.257-.992l-.322-11.876c-.037-1.351-2.137-1.355-2.1 0l.186 6.842zm-19.695 1.384c.092 1.27.227 2.53.424 3.77.211 1.324-1.813 1.893-2.025.558-.614-3.853-.694-7.877-.697-11.773-.001-1.354 2.099-1.354 2.1 0 .001 1.76.01 3.555.082 5.348l2.8-.076c-.196-1.736-.385-3.473-.463-5.221-.06-1.354 2.04-1.35 2.1 0 .167 3.773.856 7.494 1.001 11.267.051 1.355-2.049 1.35-2.1 0a59.452 59.452 0 0 0-.307-3.952l-2.915.079zm4.601 52.792c-.458-.07-.868-.404-.868-1.002V67.035c0-.903.934-1.204 1.556-.902h4.524c1.354 0 1.354 2.1 0 2.1h-3.98v3.072h1.998c1.354 0 1.354 2.1 0 2.1H85.53v3.812h3.98c1.354 0 1.354 2.1 0 2.1h-4.878c-.122 0-.234-.017-.334-.048zm-7.583-4.854c.062 1.394.172 2.782.351 4.147.177 1.34-1.926 1.323-2.1 0-.507-3.858-.457-7.888-.355-11.772.036-1.352 2.136-1.355 2.1 0-.048 1.82-.084 3.673-.057 5.525h2.905c-.151-1.78-.297-3.56-.328-5.347-.023-1.355 2.077-1.353 2.1 0 .067 3.863.668 7.688.711 11.55.015 1.355-2.085 1.354-2.1 0a61.173 61.173 0 0 0-.208-4.103h-3.02zm16.859-.157c.043 1.434.078 2.87.086 4.305.006 1.355-2.094 1.354-2.1 0-.02-3.911-.248-7.817-.267-11.728a.97.97 0 0 1 .287-.728c.117-.126.277-.227.484-.285 2.567-.725 5.764-.493 6.205 2.725.18 1.325-.016 2.936-1.3 3.671-.57.327-1.198.492-1.843.582a354.28 354.28 0 0 0 3.592 5.366c.768 1.12-1.053 2.17-1.813 1.06a337.083 337.083 0 0 1-3.33-4.968zm-.106-3.43c-.03-1.06-.056-2.12-.068-3.18 1.123-.245 2.42-.293 2.766.991.179.666.192 1.64-.556 1.915-.662.244-1.419.257-2.142.274zm6.822 8.441c-.457-.07-.868-.404-.868-1.002V67.035c0-.903.935-1.204 1.557-.902h4.524c1.354 0 1.354 2.1 0 2.1h-3.98v3.072h1.998c1.354 0 1.354 2.1 0 2.1h-1.999v3.812h3.98c1.355 0 1.355 2.1 0 2.1h-4.877c-.123 0-.234-.017-.334-.048zm-67.132-7.254a60.63 60.63 0 0 1 .491-2.62c.413.804.763 1.651 1.053 2.534-.512.048-1.027.078-1.544.086m3.965.918a1.2 1.2 0 0 0-.175-.613c-.675-2.289-1.531-4.495-3.03-6.34-.504-.622-1.578-.252-1.755.462-1.054 4.255-1.748 8.516-1.811 12.905-.02 1.355 2.08 1.353 2.1 0 .025-1.763.178-3.499.397-5.225a22.62 22.62 0 0 0 2.444-.16c.509 1.935.924 3.904 1.543 5.665.447 1.268 2.476.722 2.025-.559-.688-1.957-1.157-4.069-1.738-6.135m-20.046-6.195c-.015 2.789.001 5.883-.524 8.522-.543-1.742-1.116-3.702-2.025-5.298-.364-.635-1.48-.644-1.814.089-.795 1.74-1.364 3.586-1.835 5.452-.824-2.778-.8-5.972-.665-8.697.065-1.354-2.034-1.336-2.1.012-.2 4.04-.082 9.019 2.181 12.53.46.714 1.725.687 1.92-.254a47.065 47.065 0 0 1 1.557-5.8c.696 1.814 1.165 3.963 1.84 5.807.375 1.025 1.631.969 2.026.002 1.57-3.845 1.518-8.102 1.538-12.188.006-1.355-2.093-1.531-2.1-.177M92.293 28.83l-3.895.105-.1-3.679 1.902-.05c1.35-.038 1.355-2.138 0-2.1l-1.96.052c-.025-.985-.052-1.97-.08-2.956l3.84-.104c1.352-.037 1.355-2.137 0-2.1l-4.498.122c-.628-.259-1.495.04-1.471.917l.297 10.975c.015.53.348.846.744.96.13.058.28.091.455.086l4.767-.129c1.352-.037 1.355-2.137 0-2.1m-18.581-9.315c.054 2.436.134 4.677-.232 7.13-.514-1.448-1.067-2.779-1.893-4.114-.373-.603-1.483-.797-1.813-.035-.657 1.518-1.124 3.093-1.508 4.692-.747-2.429-.814-5.2-.76-7.583.032-1.355-2.068-1.357-2.1-.005-.084 3.691.149 8.258 2.329 11.39.467.67 1.74.561 1.919-.415.31-1.699.653-3.169 1.165-4.918.685 1.72 1.167 3.14 1.833 4.788.397.981 1.637 1.091 2.025.082 1.36-3.539 1.218-7.376 1.135-11.104-.03-1.352-2.13-1.263-2.1.092m-2.516 47.749c-.01 2.412.003 4.682-.37 7.105-.437-1.444-.919-2.803-1.644-4.145-.346-.64-1.497-.797-1.814-.066-.637 1.474-1.107 2.993-1.502 4.535-.609-2.485-.58-5.26-.469-7.645.063-1.355-2.037-1.358-2.1-.008-.175 3.772-.087 8.373 1.941 11.695.443.727 1.736.7 1.92-.231.328-1.678.684-3.522 1.192-5.162.584 1.65.984 3.507 1.561 5.169.355 1.024 1.65.96 2.025-.01 1.392-3.6 1.343-7.561 1.36-11.365.006-1.355-2.094-1.227-2.1.127" fill="#505360"/>
        <g fill="#505360">
            <path d="M27.603 25.455c.067 1.56.189 3.113.39 4.641.176 1.34-1.926 1.323-2.1 0-.556-4.225-.501-8.638-.39-12.892.037-1.352 2.137-1.355 2.1 0-.053 2.027-.093 4.09-.06 6.15h3.413c-.176-2.176-.354-4.353-.393-6.539-.024-1.355 2.076-1.353 2.1 0 .078 4.423.726 8.81.778 13.233.016 1.355-2.084 1.353-2.1 0a74.357 74.357 0 0 0-.22-4.593h-3.518z"/>
            <path d="M39.348 28.956c-1.955 1.343-3.005-4.159-3.068-5.004-.128-1.722.022-5.424 2.182-5.915.054.004.097.026.157.023 2.884-.172 2.653 9.575.729 10.896m-.73-12.996c-.07.004-.12.034-.183.048a1.087 1.087 0 0 0-.484-.01c-5.901 1.187-5.054 15.6 1.439 15.093 3.314-.258 3.465-5.67 3.395-7.996-.074-2.435-.796-7.336-4.166-7.135m-17.605 1.679c-.014 2.784.002 5.428-.522 8.159-.542-1.714-1.115-3.351-2.027-4.949-.363-.635-1.479-.7-1.814.032-.793 1.737-1.36 3.567-1.83 5.421-.829-2.783-.804-5.986-.67-8.715.066-1.354-2.034-1.343-2.1.004-.199 4.04-.08 9.02 2.182 12.532.46.713 1.725.799 1.92-.142.4-1.934.84-4.098 1.482-5.906.74 1.82 1.216 4.002 1.916 5.913.376 1.025 1.63.912 2.025-.055 1.57-3.845 1.519-8.13 1.539-12.216.006-1.355-2.093-1.432-2.1-.078"/>
        </g>
    </g>
</svg>
